<?xml version="1.0" encoding="UTF-8"?>
<svg width="252px" height="4px" viewBox="0 0 252 4" version="1.1" xmlns="http://www.w3.org/2000/svg" xmlns:xlink="http://www.w3.org/1999/xlink">
    <!-- Generator: Sketch 48.2 (47327) - http://www.bohemiancoding.com/sketch -->
    <title>line_binance</title>
    <desc>Created with Sketch.</desc>
    <defs>
        <linearGradient x1="100%" y1="0%" x2="0%" y2="0%" id="linearGradient-1">
            <stop stop-color="#FEBF00" offset="0%"></stop>
            <stop stop-color="#F3BA2F" offset="100%"></stop>
        </linearGradient>
    </defs>
    <g id="Desktop-HD" stroke="none" stroke-width="1" fill="none" fill-rule="evenodd" transform="translate(-311.000000, -651.000000)">
        <g id="Group-16" transform="translate(174.000000, 351.000000)" fill="url(#linearGradient-1)" fill-rule="nonzero">
            <path d="M387.415525,300.5 C388.243952,300.5 388.915525,301.171573 388.915525,302 C388.915525,302.828427 388.243952,303.5 387.415525,303.5 L377.415525,303.5 C376.587098,303.5 375.915525,302.828427 375.915525,302 C375.915525,301.171573 376.587098,300.5 377.415525,300.5 L387.415525,300.5 Z M373.415525,300.5 C374.243952,300.5 374.915525,301.171573 374.915525,302 C374.915525,302.828427 374.243952,303.5 373.415525,303.5 L363.415525,303.5 C362.587098,303.5 361.915525,302.828427 361.915525,302 C361.915525,301.171573 362.587098,300.5 363.415525,300.5 L373.415525,300.5 Z M359.415525,300.5 C360.243952,300.5 360.915525,301.171573 360.915525,302 C360.915525,302.828427 360.243952,303.5 359.415525,303.5 L349.415525,303.5 C348.587098,303.5 347.915525,302.828427 347.915525,302 C347.915525,301.171573 348.587098,300.5 349.415525,300.5 L359.415525,300.5 Z M345.415525,300.5 C346.243952,300.5 346.915525,301.171573 346.915525,302 C346.915525,302.828427 346.243952,303.5 345.415525,303.5 L335.415525,303.5 C334.587098,303.5 333.915525,302.828427 333.915525,302 C333.915525,301.171573 334.587098,300.5 335.415525,300.5 L345.415525,300.5 Z M331.415525,300.5 C332.243952,300.5 332.915525,301.171573 332.915525,302 C332.915525,302.828427 332.243952,303.5 331.415525,303.5 L321.415525,303.5 C320.587098,303.5 319.915525,302.828427 319.915525,302 C319.915525,301.171573 320.587098,300.5 321.415525,300.5 L331.415525,300.5 Z M317.415525,300.5 C318.243952,300.5 318.915525,301.171573 318.915525,302 C318.915525,302.828427 318.243952,303.5 317.415525,303.5 L307.415525,303.5 C306.587098,303.5 305.915525,302.828427 305.915525,302 C305.915525,301.171573 306.587098,300.5 307.415525,300.5 L317.415525,300.5 Z M303.415525,300.5 C304.243952,300.5 304.915525,301.171573 304.915525,302 C304.915525,302.828427 304.243952,303.5 303.415525,303.5 L293.415525,303.5 C292.587098,303.5 291.915525,302.828427 291.915525,302 C291.915525,301.171573 292.587098,300.5 293.415525,300.5 L303.415525,300.5 Z M289.415525,300.5 C290.243952,300.5 290.915525,301.171573 290.915525,302 C290.915525,302.828427 290.243952,303.5 289.415525,303.5 L279.415525,303.5 C278.587098,303.5 277.915525,302.828427 277.915525,302 C277.915525,301.171573 278.587098,300.5 279.415525,300.5 L289.415525,300.5 Z M275.415525,300.5 C276.243952,300.5 276.915525,301.171573 276.915525,302 C276.915525,302.828427 276.243952,303.5 275.415525,303.5 L265.415525,303.5 C264.587098,303.5 263.915525,302.828427 263.915525,302 C263.915525,301.171573 264.587098,300.5 265.415525,300.5 L275.415525,300.5 Z M261.415525,300.5 C262.243952,300.5 262.915525,301.171573 262.915525,302 C262.915525,302.828427 262.243952,303.5 261.415525,303.5 L251.415525,303.5 C250.587098,303.5 249.915525,302.828427 249.915525,302 C249.915525,301.171573 250.587098,300.5 251.415525,300.5 L261.415525,300.5 Z M247.415525,300.5 C248.243952,300.5 248.915525,301.171573 248.915525,302 C248.915525,302.828427 248.243952,303.5 247.415525,303.5 L237.415525,303.5 C236.587098,303.5 235.915525,302.828427 235.915525,302 C235.915525,301.171573 236.587098,300.5 237.415525,300.5 L247.415525,300.5 Z M233.415525,300.5 C234.243952,300.5 234.915525,301.171573 234.915525,302 C234.915525,302.828427 234.243952,303.5 233.415525,303.5 L223.415525,303.5 C222.587098,303.5 221.915525,302.828427 221.915525,302 C221.915525,301.171573 222.587098,300.5 223.415525,300.5 L233.415525,300.5 Z M219.415525,300.5 C220.243952,300.5 220.915525,301.171573 220.915525,302 C220.915525,302.828427 220.243952,303.5 219.415525,303.5 L209.415525,303.5 C208.587098,303.5 207.915525,302.828427 207.915525,302 C207.915525,301.171573 208.587098,300.5 209.415525,300.5 L219.415525,300.5 Z M205.415525,300.5 C206.243952,300.5 206.915525,301.171573 206.915525,302 C206.915525,302.828427 206.243952,303.5 205.415525,303.5 L195.415525,303.5 C194.587098,303.5 193.915525,302.828427 193.915525,302 C193.915525,301.171573 194.587098,300.5 195.415525,300.5 L205.415525,300.5 Z M191.415525,300.5 C192.243952,300.5 192.915525,301.171573 192.915525,302 C192.915525,302.828427 192.243952,303.5 191.415525,303.5 L181.415525,303.5 C180.587098,303.5 179.915525,302.828427 179.915525,302 C179.915525,301.171573 180.587098,300.5 181.415525,300.5 L191.415525,300.5 Z M177.415525,300.5 C178.243952,300.5 178.915525,301.171573 178.915525,302 C178.915525,302.828427 178.243952,303.5 177.415525,303.5 L167.415525,303.5 C166.587098,303.5 165.915525,302.828427 165.915525,302 C165.915525,301.171573 166.587098,300.5 167.415525,300.5 L177.415525,300.5 Z M163.415525,300.5 C164.243952,300.5 164.915525,301.171573 164.915525,302 C164.915525,302.828427 164.243952,303.5 163.415525,303.5 L153.415525,303.5 C152.587098,303.5 151.915525,302.828427 151.915525,302 C151.915525,301.171573 152.587098,300.5 153.415525,300.5 L163.415525,300.5 Z M149.415525,300.5 C150.243952,300.5 150.915525,301.171573 150.915525,302 C150.915525,302.828427 150.243952,303.5 149.415525,303.5 L139.415525,303.5 C138.587098,303.5 137.915525,302.828427 137.915525,302 C137.915525,301.171573 138.587098,300.5 139.415525,300.5 L149.415525,300.5 Z" id="line_binance"></path>
        </g>
    </g>
</svg>